# xmcd
#
# Track frame offsets:
#	180
#	12231
#	29062
#	43242
#	67674
#	91382
#	103592
#	117249
#	130516
#	144251
#	156850
#	171325
#	183514
#	196741
#
# Disc length: 2982 seconds
#
# Revision: 1
# Processed by: cddbd v1.5.2PL0 Copyright (c) Steve Scherf et al.
# Submitted via: EasyCDDAExtractor 7.0.3.1
#
DISCID=b70ba40e
DTITLE=Isaac Payton Sweat - Texas Honky Tonk Dreams
DYEAR=1900
DGENRE=Country
TTITLE0=Shed So Many Dreams
TTITLE1=Happ Cajun
TTITLE2=We Go Back Quite A Ways
TTITLE3=Let's Do the Joe Baily Roll
TTITLE4=Cotton Eted Joe - The Schottische
TTITLE5=I Hate To Go Searching the Bars Again
TTITLE6=You Still Know the Way To My Heart
TTITLE7=Meanwhile, Back At the Ranch
TTITLE8=Walkin' Slowly
TTITLE9=Honky Tonk Man
TTITLE10=National Chili Anthem
TTITLE11=Jole Blon
TTITLE12=Jack Daniels Kind Of Day
TTITLE13=Busted In Austin
EXTD=
EXTT0=
EXTT1=
EXTT2=
EXTT3=
EXTT4=
EXTT5=
EXTT6=
EXTT7=
EXTT8=
EXTT9=
EXTT10=
EXTT11=
EXTT12=
EXTT13=
PLAYORDER=
